<mxfile host="app.diagrams.net" modified="2023-05-19T03:12:53.659Z" agent="Mozilla/5.0 (Windows NT 10.0; Win64; x64) AppleWebKit/537.36 (KHTML, like Gecko) Chrome/113.0.0.0 Safari/537.36" etag="CjS3yFCPZZkDQuvY4ixW" version="21.3.2" type="device">
  <diagram id="C5RBs43oDa-KdzZeNtuy" name="Page-1">
    <mxGraphModel dx="778" dy="342" grid="1" gridSize="10" guides="1" tooltips="1" connect="1" arrows="1" fold="1" page="1" pageScale="1" pageWidth="827" pageHeight="1169" background="none" math="0" shadow="0">
      <root>
        <mxCell id="WIyWlLk6GJQsqaUBKTNV-0" />
        <mxCell id="WIyWlLk6GJQsqaUBKTNV-1" parent="WIyWlLk6GJQsqaUBKTNV-0" />
        <mxCell id="dOBiIC0QyjtZ4I4BgCeR-14" style="edgeStyle=orthogonalEdgeStyle;shape=link;rounded=0;orthogonalLoop=1;jettySize=auto;html=1;entryX=0.5;entryY=1;entryDx=0;entryDy=0;" edge="1" parent="WIyWlLk6GJQsqaUBKTNV-1" source="dOBiIC0QyjtZ4I4BgCeR-1" target="dOBiIC0QyjtZ4I4BgCeR-3">
          <mxGeometry relative="1" as="geometry" />
        </mxCell>
        <mxCell id="dOBiIC0QyjtZ4I4BgCeR-15" style="edgeStyle=orthogonalEdgeStyle;shape=link;rounded=0;orthogonalLoop=1;jettySize=auto;html=1;entryX=0.5;entryY=1;entryDx=0;entryDy=0;" edge="1" parent="WIyWlLk6GJQsqaUBKTNV-1" source="dOBiIC0QyjtZ4I4BgCeR-1" target="dOBiIC0QyjtZ4I4BgCeR-4">
          <mxGeometry relative="1" as="geometry" />
        </mxCell>
        <mxCell id="dOBiIC0QyjtZ4I4BgCeR-1" value="«interface»&lt;br&gt;&lt;b&gt;Output&lt;/b&gt;" style="html=1;whiteSpace=wrap;" vertex="1" parent="WIyWlLk6GJQsqaUBKTNV-1">
          <mxGeometry x="224" y="140" width="100" height="60" as="geometry" />
        </mxCell>
        <mxCell id="dOBiIC0QyjtZ4I4BgCeR-2" value="&lt;p style=&quot;margin:0px;margin-top:4px;text-align:center;&quot;&gt;&lt;br&gt;«class»&lt;b&gt;&amp;nbsp;&lt;/b&gt;&lt;/p&gt;&lt;p style=&quot;margin:0px;margin-top:4px;text-align:center;&quot;&gt;&lt;b&gt;OutputEntity&lt;/b&gt;&lt;/p&gt;" style="verticalAlign=top;align=left;overflow=fill;fontSize=12;fontFamily=Helvetica;html=1;whiteSpace=wrap;" vertex="1" parent="WIyWlLk6GJQsqaUBKTNV-1">
          <mxGeometry x="210" y="30" width="140" height="80" as="geometry" />
        </mxCell>
        <mxCell id="dOBiIC0QyjtZ4I4BgCeR-32" style="edgeStyle=orthogonalEdgeStyle;shape=flexArrow;rounded=0;orthogonalLoop=1;jettySize=auto;html=1;entryX=0;entryY=0.5;entryDx=0;entryDy=0;" edge="1" parent="WIyWlLk6GJQsqaUBKTNV-1" source="dOBiIC0QyjtZ4I4BgCeR-3" target="dOBiIC0QyjtZ4I4BgCeR-2">
          <mxGeometry relative="1" as="geometry">
            <Array as="points">
              <mxPoint x="120" y="70" />
            </Array>
          </mxGeometry>
        </mxCell>
        <mxCell id="dOBiIC0QyjtZ4I4BgCeR-3" value="&lt;p style=&quot;margin:0px;margin-top:4px;text-align:center;&quot;&gt;«class»&lt;br&gt;&lt;b&gt;JsonOutput&lt;/b&gt;&lt;/p&gt;" style="verticalAlign=top;align=left;overflow=fill;fontSize=12;fontFamily=Helvetica;html=1;whiteSpace=wrap;" vertex="1" parent="WIyWlLk6GJQsqaUBKTNV-1">
          <mxGeometry x="50" y="140" width="140" height="60" as="geometry" />
        </mxCell>
        <mxCell id="dOBiIC0QyjtZ4I4BgCeR-33" style="edgeStyle=orthogonalEdgeStyle;shape=flexArrow;rounded=0;orthogonalLoop=1;jettySize=auto;html=1;entryX=1;entryY=0.5;entryDx=0;entryDy=0;" edge="1" parent="WIyWlLk6GJQsqaUBKTNV-1" source="dOBiIC0QyjtZ4I4BgCeR-4" target="dOBiIC0QyjtZ4I4BgCeR-2">
          <mxGeometry relative="1" as="geometry">
            <Array as="points">
              <mxPoint x="420" y="70" />
            </Array>
          </mxGeometry>
        </mxCell>
        <mxCell id="dOBiIC0QyjtZ4I4BgCeR-4" value="&lt;p style=&quot;margin:0px;margin-top:4px;text-align:center;&quot;&gt;«class»&lt;br&gt;&lt;b&gt;HtmlOutput&lt;/b&gt;&lt;/p&gt;" style="verticalAlign=top;align=left;overflow=fill;fontSize=12;fontFamily=Helvetica;html=1;whiteSpace=wrap;" vertex="1" parent="WIyWlLk6GJQsqaUBKTNV-1">
          <mxGeometry x="360" y="140" width="140" height="60" as="geometry" />
        </mxCell>
        <mxCell id="dOBiIC0QyjtZ4I4BgCeR-20" style="edgeStyle=orthogonalEdgeStyle;shape=link;rounded=0;orthogonalLoop=1;jettySize=auto;html=1;entryX=0.5;entryY=0;entryDx=0;entryDy=0;" edge="1" parent="WIyWlLk6GJQsqaUBKTNV-1" source="dOBiIC0QyjtZ4I4BgCeR-16" target="dOBiIC0QyjtZ4I4BgCeR-17">
          <mxGeometry relative="1" as="geometry" />
        </mxCell>
        <mxCell id="dOBiIC0QyjtZ4I4BgCeR-21" style="edgeStyle=orthogonalEdgeStyle;shape=link;rounded=0;orthogonalLoop=1;jettySize=auto;html=1;entryX=0.5;entryY=0;entryDx=0;entryDy=0;" edge="1" parent="WIyWlLk6GJQsqaUBKTNV-1" source="dOBiIC0QyjtZ4I4BgCeR-16" target="dOBiIC0QyjtZ4I4BgCeR-18">
          <mxGeometry relative="1" as="geometry" />
        </mxCell>
        <mxCell id="dOBiIC0QyjtZ4I4BgCeR-31" style="edgeStyle=orthogonalEdgeStyle;shape=flexArrow;rounded=0;orthogonalLoop=1;jettySize=auto;html=1;" edge="1" parent="WIyWlLk6GJQsqaUBKTNV-1" source="dOBiIC0QyjtZ4I4BgCeR-16">
          <mxGeometry relative="1" as="geometry">
            <mxPoint x="274" y="370" as="targetPoint" />
          </mxGeometry>
        </mxCell>
        <mxCell id="dOBiIC0QyjtZ4I4BgCeR-16" value="«interface»&lt;br&gt;&lt;b&gt;Factory&lt;/b&gt;" style="html=1;whiteSpace=wrap;" vertex="1" parent="WIyWlLk6GJQsqaUBKTNV-1">
          <mxGeometry x="219" y="230" width="110" height="50" as="geometry" />
        </mxCell>
        <mxCell id="dOBiIC0QyjtZ4I4BgCeR-23" style="edgeStyle=orthogonalEdgeStyle;shape=flexArrow;rounded=0;orthogonalLoop=1;jettySize=auto;html=1;entryX=1;entryY=0.5;entryDx=0;entryDy=0;" edge="1" parent="WIyWlLk6GJQsqaUBKTNV-1" source="dOBiIC0QyjtZ4I4BgCeR-17" target="dOBiIC0QyjtZ4I4BgCeR-4">
          <mxGeometry relative="1" as="geometry">
            <Array as="points">
              <mxPoint x="560" y="330" />
              <mxPoint x="560" y="170" />
            </Array>
          </mxGeometry>
        </mxCell>
        <mxCell id="dOBiIC0QyjtZ4I4BgCeR-17" value="&lt;p style=&quot;margin:0px;margin-top:4px;text-align:center;&quot;&gt;«class»&lt;br&gt;&lt;/p&gt;&lt;p style=&quot;margin:0px;margin-top:4px;text-align:center;&quot;&gt;HtmlFactory&lt;/p&gt;" style="verticalAlign=top;align=left;overflow=fill;fontSize=12;fontFamily=Helvetica;html=1;whiteSpace=wrap;" vertex="1" parent="WIyWlLk6GJQsqaUBKTNV-1">
          <mxGeometry x="344" y="300" width="140" height="60" as="geometry" />
        </mxCell>
        <mxCell id="dOBiIC0QyjtZ4I4BgCeR-24" style="edgeStyle=orthogonalEdgeStyle;shape=flexArrow;rounded=0;orthogonalLoop=1;jettySize=auto;html=1;entryX=0;entryY=0.5;entryDx=0;entryDy=0;" edge="1" parent="WIyWlLk6GJQsqaUBKTNV-1" source="dOBiIC0QyjtZ4I4BgCeR-18" target="dOBiIC0QyjtZ4I4BgCeR-3">
          <mxGeometry relative="1" as="geometry">
            <Array as="points">
              <mxPoint x="10" y="330" />
              <mxPoint x="10" y="170" />
            </Array>
          </mxGeometry>
        </mxCell>
        <mxCell id="dOBiIC0QyjtZ4I4BgCeR-18" value="&lt;p style=&quot;margin:0px;margin-top:4px;text-align:center;&quot;&gt;«class»&lt;br&gt;&lt;/p&gt;&lt;p style=&quot;margin:0px;margin-top:4px;text-align:center;&quot;&gt;JsonFactory&lt;/p&gt;" style="verticalAlign=top;align=left;overflow=fill;fontSize=12;fontFamily=Helvetica;html=1;whiteSpace=wrap;" vertex="1" parent="WIyWlLk6GJQsqaUBKTNV-1">
          <mxGeometry x="50" y="300" width="140" height="60" as="geometry" />
        </mxCell>
        <mxCell id="dOBiIC0QyjtZ4I4BgCeR-28" style="edgeStyle=orthogonalEdgeStyle;shape=flexArrow;rounded=0;orthogonalLoop=1;jettySize=auto;html=1;" edge="1" parent="WIyWlLk6GJQsqaUBKTNV-1" source="dOBiIC0QyjtZ4I4BgCeR-25">
          <mxGeometry relative="1" as="geometry">
            <mxPoint x="274" y="490" as="targetPoint" />
          </mxGeometry>
        </mxCell>
        <mxCell id="dOBiIC0QyjtZ4I4BgCeR-25" value="&lt;p style=&quot;margin:0px;margin-top:4px;text-align:center;&quot;&gt;«class»&lt;br&gt;&lt;b&gt;Response&lt;/b&gt;&lt;/p&gt;" style="verticalAlign=top;align=left;overflow=fill;fontSize=12;fontFamily=Helvetica;html=1;whiteSpace=wrap;" vertex="1" parent="WIyWlLk6GJQsqaUBKTNV-1">
          <mxGeometry x="204" y="380" width="140" height="60" as="geometry" />
        </mxCell>
        <mxCell id="dOBiIC0QyjtZ4I4BgCeR-29" style="edgeStyle=orthogonalEdgeStyle;shape=flexArrow;rounded=0;orthogonalLoop=1;jettySize=auto;html=1;" edge="1" parent="WIyWlLk6GJQsqaUBKTNV-1" source="dOBiIC0QyjtZ4I4BgCeR-27">
          <mxGeometry relative="1" as="geometry">
            <mxPoint x="420" y="530" as="targetPoint" />
          </mxGeometry>
        </mxCell>
        <mxCell id="dOBiIC0QyjtZ4I4BgCeR-27" value="&lt;p style=&quot;margin:0px;margin-top:4px;text-align:center;&quot;&gt;«class»&lt;br&gt;&lt;b&gt;Main&lt;/b&gt;&lt;/p&gt;" style="verticalAlign=top;align=left;overflow=fill;fontSize=12;fontFamily=Helvetica;html=1;whiteSpace=wrap;" vertex="1" parent="WIyWlLk6GJQsqaUBKTNV-1">
          <mxGeometry x="204" y="500" width="140" height="60" as="geometry" />
        </mxCell>
        <mxCell id="dOBiIC0QyjtZ4I4BgCeR-30" value="Cliente" style="shape=umlActor;verticalLabelPosition=bottom;verticalAlign=top;html=1;" vertex="1" parent="WIyWlLk6GJQsqaUBKTNV-1">
          <mxGeometry x="440" y="490" width="30" height="60" as="geometry" />
        </mxCell>
      </root>
    </mxGraphModel>
  </diagram>
</mxfile>
